<svg xmlns="http://www.w3.org/2000/svg" width="256" height="256"><path fill-opacity=".016" d="M0 128.004v128.004l128.25-.254 128.25-.254.254-127.75L257.008 0H0v128.004m.485.496c0 70.4.119 99.053.265 63.672.146-35.38.146-92.98 0-128C.604 29.153.485 58.1.485 128.5" fill="#1976D2" fill-rule="evenodd"/><path fill-opacity=".131" d="M97 23.948C51.87 33.54 17.405 72.2 13.089 118.069c-.86 9.134-.208 23.646 1.345 29.931.565 2.287-.025 2.836-6.908 6.432-4.139 2.163-7.526 4.3-7.526 4.75 0 1.562 3.09.801 9.13-2.247 3.34-1.686 6.174-2.924 6.297-2.75.124.173 1.256 3.24 2.515 6.815 4.946 14.035 13.301 28.102 22.47 37.825l5.021 5.326-8.217 7.51c-5.045 4.612-8.216 8.282-8.216 9.51 0 1.541 2.029.145 8.847-6.086 4.865-4.447 9.155-8.085 9.531-8.085.377 0 3.933 2.432 7.904 5.405 13.253 9.923 28.963 16.878 44.257 19.591 10.951 1.943 37.931.836 47.461-1.948 36.358-10.618 64.93-40.004 74.716-76.842 2.215-8.341 2.582-11.815 2.605-24.706.028-15.994-1.14-23.4-5.65-35.825l-2.44-6.722 5.135-4.481c7.683-6.705 18.24-18.942 24.314-28.184 5.394-8.209 10.663-18.812 10.112-20.351-.161-.449-2.631 2.048-5.49 5.549-2.859 3.502-8.683 9.34-12.943 12.974-10.732 9.158-28.632 21.222-29.155 19.652-.853-2.56-12.075-15.812-18.094-21.367-14.742-13.607-32.376-22.442-52.36-26.233-10.855-2.059-29.976-1.855-40.75.436M139.5 42c-.34.55-.141 1 .441 1S141 42.55 141 42s-.198-1-.441-1-.719.45-1.059 1M73.42 60.82c-5.067 3.198-6.931 8.283-6.848 18.68.041 5.206.81 11.74 1.823 15.5 1.88 6.978 11.41 28 12.693 28 .427 0-1.218-4.267-3.655-9.482-16.345-34.977-11.456-57.646 11.333-52.546 6.993 1.565 18.112 7.292 26.355 13.574 7.087 5.402 24.622 22.619 29.742 29.204l3.305 4.25-2.834.006c-8.583.016-15.334 5.133-15.334 11.62 0 5.4 2.566 9.294 7.585 11.514l4.442 1.966 6.033-3.724c3.318-2.048 6.247-4.069 6.508-4.492.261-.422-2.228-1.752-5.531-2.957-6.937-2.529-8.913-4.321-7.403-6.715 1.346-2.133 5.989-3.312 8.813-2.238 2.696 1.025 11.472 14.399 16.286 24.819 2.751 5.952 3.179 7.642 2.109 8.32-1.047.663-.972.854.337.866 2.492.022 5.072 9.744 5.577 21.015.391 8.712.23 9.79-1.935 13-1.298 1.925-3.927 4.287-5.841 5.248-1.914.962-2.805 1.748-1.98 1.747 2.925-.005 8.141-4.088 9.56-7.485 2.501-5.986 1.397-22.685-2.1-31.76-.553-1.437-.115-1.75 2.452-1.75 2.81 0 3.065-.245 2.517-2.428-.335-1.335-.314-3.36.048-4.5.582-1.833 1.456-2.072 7.571-2.072 6.646 0 6.94.103 7.579 2.651.372 1.48.155 3.468-.489 4.5-1.094 1.752-.635 1.849 8.744 1.849h9.9l-2.712-6.75c-1.492-3.713-4.685-12.263-7.096-19L196.59 109h-4.563c-3.152 0-5.641.732-8.049 2.369-3.257 2.213-3.776 3.368-7.874 17.5-2.413 8.322-4.543 15.131-4.734 15.131-.191 0-2.205-3.693-4.474-8.207-2.27-4.514-5.875-10.975-8.011-14.358-4.421-7-4.696-7.939-1.885-6.435 1.816.972 2 .76 2-2.294 0-2.541-.429-3.363-1.75-3.357-6.23.027-7.065-.424-11.306-6.099-11.599-15.522-33.872-34.282-48.527-40.874-8.06-3.625-19.54-4.369-23.997-1.556M90 74c0 .55.477 1 1.059 1s.781-.45.441-1-.816-1-1.059-1-.441.45-.441 1m-57.035 35.934c1.51 2.822 1.366 33.335-.165 34.866-.933.933-.01 1.2 4.155 1.2 5.124 0 5.284-.079 3.7-1.829-1.328-1.467-1.654-3.985-1.649-12.75l.005-10.921 7.745 13 7.744 13 7.75.292c7.669.289 9.16-.377 6.25-2.792-1.22-1.013-1.5-4.262-1.5-17.422 0-11.25.366-16.544 1.2-17.378.933-.933.156-1.2-3.5-1.2-4.688 0-5.625.675-3.663 2.637.62.62.921 5.141.75 11.262l-.287 10.225-6.969-12.062L47.563 108h-7.817c-7.418 0-7.764.099-6.781 1.934M89.8 109.2c.66.66 1.2 2.256 1.2 3.546 0 3.984-7.054 27.596-9.113 30.504L79.94 146h4.505c4.37 0 4.49-.083 4.003-2.75-.276-1.512-.032-3.425.543-4.25.913-1.31 1.178-1.276 2.087.267C93.557 143.476 104.232 157 105.075 157c1.806 0 .844-1.622-6.019-10.15-3.819-4.746-6.669-8.903-6.333-9.239.336-.336 2.57-.611 4.965-.611 3.675 0 4.533.39 5.494 2.5.852 1.87.852 3.13 0 5l-1.139 2.5h9.312c5.121 0 9.571-.26 9.889-.577.318-.318-.431-2.905-1.664-5.75-1.233-2.845-4.456-11.36-7.161-18.923L107.5 108h-9.45c-7.35 0-9.183.267-8.25 1.2m4.809 9.907c-.241.766-1.152 3.611-2.024 6.321C90.219 132.783 90.317 133 96 133c2.75 0 5-.215 5-.477 0-.782-5.019-13.876-5.505-14.362-.246-.246-.645.18-.886.946m86.775 6.871c-1.163 3.827-1.876 7.197-1.583 7.49.812.812 10.199.634 10.199-.193 0-1.416-5.326-14.275-5.908-14.265-.326.006-1.544 3.141-2.708 6.968m-28.189 5.764c-4.229 2.883-4.99 3.793-3.75 4.487.855.479 1.555 1.759 1.555 2.845 0 2.608-4.321 4.229-9.706 3.641-3.295-.36-4.974.062-7.75 1.949-1.949 1.324-3.544 2.894-3.544 3.487 0 .635.989.431 2.401-.494 1.856-1.216 3.162-1.356 5.744-.615 11.25 3.226 25.188-2.836 25.188-10.955 0-2.888-2.691-8.147-4.106-8.024-.4.034-3.114 1.69-6.032 3.679M130 139c0 .55.477 1 1.059 1s.781-.45.441-1-.816-1-1.059-1-.441.45-.441 1m-21.504 22.007c-1.401 2.266 7.992 11.993 11.581 11.993 3.762 0 1.987-3.629-4.078-8.34-6.561-5.094-6.601-5.114-7.503-3.653M198.5 161c.34.55.816 1 1.059 1s.441-.45.441-1-.477-1-1.059-1-.781.45-.441 1m-9.5 23.059c0 .582.45.781 1 .441s1-.816 1-1.059-.45-.441-1-.441-1 .477-1 1.059M79.5 205c.34.55.816 1 1.059 1s.441-.45.441-1-.477-1-1.059-1-.781.45-.441 1" fill="#1976D2" fill-rule="evenodd"/><path fill-opacity=".39" d="M100.655 23.53c-21.908 4.145-39.298 13.19-55.398 28.812-17.155 16.647-27.93 37.49-31.302 60.55-1.166 7.975-.815 27.264.633 34.752.59 3.053.401 3.252-6.49 6.874C4.194 156.569 1 158.642 1 159.124c0 1.447 1.256 1.04 8.233-2.665l6.668-3.54 1.097 4.074c3.448 12.806 13.704 30.959 23.703 41.957l4.954 5.449-7.743 6.924c-4.259 3.808-7.964 7.768-8.234 8.8-.27 1.033-.265 1.877.012 1.877s4.357-3.606 9.069-8.014c7.458-6.978 8.787-7.851 10.276-6.75.94.695 4.212 3.169 7.271 5.496 11.963 9.105 27.481 15.848 43.322 18.825 13.321 2.503 34.798 1.603 46.872-1.965 17.435-5.153 31.961-13.402 44.612-25.336 9.696-9.147 16.085-17.922 22.394-30.756 7.647-15.557 9.618-23.671 10.229-42.115.549-16.566-.703-25.695-5.236-38.183l-2.404-6.624 10.274-10.539c14.204-14.571 21.449-24.579 27.175-37.539l2.651-6-8.244 8.81c-8.564 9.152-19.18 17.916-31.837 26.282l-7.387 4.883-1.613-2.48C193.433 48.974 169.205 31.714 144.5 25.39c-12.736-3.261-32.101-4.082-43.845-1.86m38.495 18.42c.22.66.726 1.166 1.125 1.125 1.196-.124.964-1.495-.325-1.925-.66-.22-1.02.14-.8.8M112 43c0 .55.45 1 1 1s1-.45 1-1-.45-1-1-1-1 .45-1 1m12 2c0 .55.45 1 1 1s1-.45 1-1-.45-1-1-1-1 .45-1 1m.5 12c.34.55.816 1 1.059 1s.441-.45.441-1-.477-1-1.059-1-.781.45-.441 1m-49 2.34c-12.571 5.81-12.828 27.642-.626 53.186 2.679 5.609 5.45 10.556 6.156 10.993 1.779 1.099 1.064-1.008-4.42-13.021-8.243-18.059-10.664-33.378-6.667-42.182 5.655-12.455 24.546-9.28 46.785 7.864C122.389 80.543 147 105.52 147 106.902c0 .464-2.193 1.054-4.872 1.312-6.43.618-10.778 3.771-12.132 8.8-1.282 4.764.387 9.569 4.43 12.749 4.857 3.821 7.638 3.731 14.416-.466 3.374-2.088 5.99-4.247 5.813-4.797-.177-.549-2.534-1.813-5.238-2.808-2.704-.994-5.738-2.616-6.742-3.603-1.695-1.667-1.708-1.913-.179-3.442.949-.949 3.251-1.647 5.429-1.647 3.559 0 4.045.397 8.264 6.75 2.466 3.713 5.072 7.875 5.793 9.25 1.309 2.499 1.308 2.499-.828.603-2.116-1.879-2.192-1.861-7.736 1.82-5.448 3.617-5.552 3.772-3.826 5.679 2.845 3.144-.07 5.272-7.322 5.346-6.226.064-12.27 2.565-12.27 5.078 0 1.669 1.571 1.978 2.491.488.374-.605 4.018-.743 9.45-.358 7.863.559 9.35.381 13.446-1.601 5.402-2.615 8.594-6.28 8.66-9.94.04-2.262.385-1.964 2.558 2.212 1.382 2.655 2.357 5.58 2.167 6.5-.19.92.252 2.13.981 2.688 1.985 1.52 5.213 15.15 5.208 21.985-.006 7.546-2.682 13.787-6.833 15.934-1.7.879-5.793 1.618-9.328 1.684l-6.3.118 4.596.962c3.1.649 5.904.61 8.616-.12 10.61-2.858 13.559-14.095 8.717-33.222-1.923-7.597-1.872-7.856 1.546-7.856 2.67 0 2.889-.231 2.128-2.25-.466-1.238-.47-3.262-.008-4.5.745-1.993 1.532-2.25 6.898-2.25 5.581 0 6.133.201 7.032 2.565 1.229 3.233 1.253 3.014-.534 4.801-1.345 1.345-.314 1.543 9.502 1.821 6.056.172 11.01.226 11.009.12-.001-.106-.847-1.681-1.88-3.5-1.032-1.819-4.505-10.619-7.717-19.557l-5.84-16.25h-4.349c-3.156 0-5.36.743-8.033 2.71-2.026 1.49-3.795 2.764-3.931 2.831-.137.068-2.105 6.723-4.373 14.791-2.269 8.067-4.407 14.66-4.752 14.651-.345-.009-1.725-2.551-3.066-5.649-1.342-3.097-4.799-9.39-7.683-13.983-2.883-4.593-4.85-8.351-4.369-8.351.48 0 1.151.45 1.491 1 1.388 2.246 2.5.743 2.5-3.377v-4.377l-4.355.491c-4.221.475-4.475.341-8.235-4.373-8.536-10.7-27.98-29.152-36.689-34.817C95.794 59.837 82.66 56.031 75.5 59.34m14.043 14.591c-.74 1.197 1.141 2.382 2.473 1.559C93.135 74.799 92.4 73 91 73c-.485 0-1.141.419-1.457.931M83 77c0 .55.477 1 1.059 1s.781-.45.441-1-.816-1-1.059-1-.441.45-.441 1m-52 30.878c0 .482.675 1.437 1.5 2.122 1.218 1.01 1.5 4.221 1.5 17.051 0 12.717-.293 16.099-1.5 17.306-1.962 1.962-1.894 2.542.25 2.131.962-.184 3.448-.369 5.523-.411 3.741-.076 3.76-.097 2.212-2.459-1.203-1.836-1.494-4.609-1.273-12.105l.288-9.723 7.364 12.605L54.228 147h16.917l-2.072-2.635c-1.888-2.4-2.073-3.973-2.073-17.671 0-12.251.29-15.357 1.568-16.769 1.466-1.62 1.208-1.754-4.002-2.079-3.063-.19-5.568-.218-5.567-.061 0 .157.694 1.342 1.54 2.634 1.17 1.786 1.47 4.588 1.25 11.692l-.289 9.342-5.415-9.476C46.953 105.996 48.103 107 38.932 107c-4.363 0-7.932.395-7.932.878m58.345 1.951c.91 1.006 1.655 2.314 1.655 2.908 0 .593-1.829 7.533-4.065 15.421-2.581 9.104-4.772 14.948-6 16.002-1.064.913-1.935 1.926-1.935 2.25 0 .325 2.42.59 5.377.59h5.377l-.499-4.75c-.581-5.536-.744-5.654 7.689 5.569 5.782 7.696 8.42 10.151 9.618 8.953.261-.262-2.683-4.424-6.544-9.249-3.86-4.825-7.018-8.942-7.018-9.148 0-.206 2.201-.375 4.892-.375 4.442 0 4.952.24 5.548 2.618.45 1.79.119 3.212-1.046 4.5-1.658 1.832-1.417 1.882 9.058 1.882 8.871 0 10.667-.249 10.219-1.416-.485-1.262-8.177-22.145-12.278-33.334l-1.558-4.25H97.762c-9.694 0-10.01.069-8.417 1.829m5.264 10.278c-.241.766-1.152 3.611-2.024 6.321-.872 2.711-1.585 5.298-1.585 5.75 0 .452 2.25.822 5 .822s5-.147 5-.328c0-.555-5.176-13.147-5.576-13.565-.208-.216-.574.234-.815 1m88.931 1c-2.03 5.579-3.54 10.28-3.54 11.019 0 .481 2.218.874 4.93.874h4.93l-2.53-6.25c-2.928-7.234-3.112-7.507-3.79-5.643M130 139c0 1.867.267 2.133 1.2 1.2.933-.933.933-1.467 0-2.4-.933-.933-1.2-.667-1.2 1.2m68.095 20.941c-.994.615-1.022.986-.115 1.547.657.406 1.644.288 2.194-.262 1.303-1.303-.373-2.339-2.079-1.285m-90.531.956c-.648 1.048 7.74 10.66 10.67 12.228 1.528.818 2.353.717 3.501-.431 1.932-1.933 1.387-2.714-5.703-8.169-5.968-4.593-7.474-5.238-8.468-3.628M172 162c0 .55.477 1 1.059 1s.781-.45.441-1-.816-1-1.059-1-.441.45-.441 1m15 .059c0 .582.45.781 1 .441s1-.816 1-1.059-.45-.441-1-.441-1 .477-1 1.059M202 168c0 .55.45 1 1 1s1-.45 1-1-.45-1-1-1-1 .45-1 1m-122 2c0 .55.45 1 1 1s1-.45 1-1-.45-1-1-1-1 .45-1 1m91.51.016c.346.559 1.047.758 1.559.441 1.387-.857 1.129-1.457-.628-1.457-.857 0-1.276.457-.931 1.016m15.49 9.043c0 .582.45.781 1 .441s1-.816 1-1.059-.45-.441-1-.441-1 .477-1 1.059M69 180c0 .55.45 1 1 1s1-.45 1-1-.45-1-1-1-1 .45-1 1m-18 1c0 .55.45 1 1 1s1-.45 1-1-.45-1-1-1-1 .45-1 1m137.543 1.931c-.74 1.197 1.141 2.382 2.473 1.559 1.119-.691.384-2.49-1.016-2.49-.485 0-1.141.419-1.457.931M55.5 184c-.34.55-.141 1 .441 1S57 184.55 57 184s-.198-1-.441-1-.719.45-1.059 1m31.5 1c0 .55.45 1 1 1s1-.45 1-1-.45-1-1-1-1 .45-1 1m-7.5 19c-.399.646-.276 1.624.274 2.174.667.667 1.242.609 1.726-.174.399-.646.276-1.624-.274-2.174-.667-.667-1.242-.609-1.726.174" fill="#1976D2" fill-rule="evenodd"/><path fill-opacity=".353" d="M106.847 23.039C77.417 26.475 48.325 43.96 31.97 68.045c-14.064 20.71-20.78 46.517-18.143 69.714.624 5.488 1.374 10.601 1.666 11.362.357.932-1.894 2.682-6.898 5.361-4.086 2.188-7.211 4.33-6.945 4.76.265.43 3.367-.832 6.893-2.803 3.526-1.972 6.837-3.322 7.357-3.001.52.322 1.264 2.032 1.653 3.801 2.441 11.116 13.182 30.198 22.763 40.44l6.028 6.443-8.172 7.52c-10.107 9.3-10.877 11.987-.922 3.216 3.987-3.514 7.989-6.958 8.891-7.655 1.401-1.081 2.721-.447 9 4.325 9.739 7.4 25.07 14.845 37.382 18.152 8.948 2.403 11.68 2.677 26.477 2.653 13.58-.023 17.86-.398 24.187-2.123 28.845-7.864 50.721-23.973 65.625-48.322 15.849-25.895 19.377-58.207 9.588-87.824l-2.575-7.792 9.849-9.886c5.418-5.437 12.209-13.036 15.092-16.886 4.995-6.669 14.835-24.233 14.028-25.039-.21-.21-2.328 2.109-4.706 5.154-2.378 3.045-8.337 8.877-13.242 12.96C227.854 60.059 210.844 72 209.176 72c-.496 0-3.172-3.054-5.947-6.786-17.524-23.566-44.247-38.876-73.563-42.145-10.531-1.174-12.986-1.177-22.819-.03m11.736 7.827c-.431.697-.513 1.537-.183 1.867.895.895 1.871-.421 1.387-1.871-.338-1.016-.574-1.016-1.204.004M139 41c-1.333 1.333-1.306 1.694.25 3.25 1.364 1.364 1.75 1.436 1.75.323 0-.784.575-1.572 1.279-1.75.972-.246.912-.683-.25-1.823-1.359-1.333-1.696-1.333-3.029 0m-27.457 1.931c-.683 1.105.894 2.299 1.818 1.375.95-.951.773-2.306-.302-2.306-.518 0-1.2.419-1.516.931M124 44.5c0 .825.45 1.5 1 1.5s1-.675 1-1.5-.45-1.5-1-1.5-1 .675-1 1.5m-26 7.393c0 .882 1.664 1.813 3.388 1.894.489.023 1.252.63 1.696 1.349.444.718 1.136.977 1.539.575.868-.869-2.758-3.745-3.862-3.063-.419.258-.761-.007-.761-.589S99.55 51 99 51s-1 .402-1 .893M115 52c0 .55.45 1 1 1s1-.45 1-1-.45-1-1-1-1 .45-1 1m9 5c0 .55.45 1 1 1s1-.45 1-1-.45-1-1-1-1 .45-1 1m-25 1.5c0 .825.45 1.5 1 1.5s1-.675 1-1.5-.45-1.5-1-1.5-1 .675-1 1.5m-25 1.28c-1.982 1.087-4.569 3.827-5.964 6.319C64.733 72 64.664 83.925 67.867 95.5 70.64 105.522 79.491 124 81.518 124c1.974 0 1.944-.143-1.513-6.991-5.013-9.929-8.816-20.378-10.571-29.039-5.683-28.044 11.85-35.172 40.302-16.387 8.417 5.557 33.594 29.427 36.226 34.346 1.041 1.945.847 2.071-3.177 2.075-7.305.006-13.785 5.747-13.785 12.212 0 5.725 6.915 12.801 12.484 12.774 1.109-.005 4.941-1.876 8.516-4.158l6.5-4.15-7.25-3.31c-7.43-3.393-8.898-5.42-5.316-7.337 4.141-2.216 6.955-1.251 10.337 3.546 5.847 8.295 6.816 10.086 5.457 10.086-.691 0-3.863 1.73-7.048 3.845-4.588 3.046-5.469 4.027-4.236 4.717 2.215 1.239 1.926 4.519-.465 5.278-1.112.353-3.967.522-6.343.376-5.328-.328-11.636 2.983-11.636 6.106 0 1.914.159 1.953 2.291.556 1.918-1.257 3.287-1.316 8.4-.365 4.833.899 7.113.855 10.913-.209 6.03-1.688 12.373-7.207 12.457-10.837.051-2.204.499-1.753 2.75 2.769 1.937 3.892 2.34 5.523 1.439 5.833-1.821.627-1.529 1.958.548 2.501 1.096.287 2.291 2.185 3.064 4.867l1.769 6.146c.335 1.163-.05 1.75-1.147 1.75-.908 0-1.489.484-1.292 1.075.197.591.746 1.003 1.221.915 1.422-.265 2.555 2.299 2.572 5.817.027 5.795-2.071 11.901-5.078 14.782-3.927 3.762-11.848 4.373-20.657 1.593-7.309-2.307-8.435-1.432-1.5 1.165 7.321 2.742 16.987 3.183 21.25.97 4.941-2.565 8.005-9.006 7.983-16.779-.016-5.596-1.889-16.706-3.505-20.788-.566-1.43-.147-1.75 2.292-1.75 2.95 0 2.978-.052 2.472-4.549l-.513-4.549 6.885.299c6.378.277 6.911.473 7.221 2.664.184 1.301-.154 2.854-.75 3.45-2.288 2.288-.724 2.685 10.57 2.685 11.026 0 11.571-.094 10.099-1.75-.856-.963-3.589-7.375-6.073-14.25-2.484-6.875-5.486-15.088-6.671-18.25l-2.154-5.75h-4.75c-3.681 0-5.625.653-8.641 2.902-3.722 2.774-4.073 3.547-8.032 17.66l-4.139 14.759-2.479-5.41c-1.364-2.976-4.801-9.153-7.638-13.725-4.071-6.562-4.739-8.182-3.168-7.683 1.813.575 1.991.169 1.991-4.558 0-4.483-.203-5.022-1.489-3.954-3.128 2.596-8 .369-12.617-5.768-6-7.976-21.043-22.889-29.394-29.14-3.85-2.882-11.121-7.287-16.158-9.789C89.151 57.737 79.964 56.511 74 59.78M139 66c0 .55.675 1 1.5 1s1.5-.45 1.5-1-.675-1-1.5-1-1.5.45-1.5 1m-59.417 5.866c-.431.697-.513 1.537-.183 1.867.895.895 1.871-.421 1.387-1.871-.338-1.016-.574-1.016-1.204.004m10.184.893c-1.376 1.57-1.341 1.93.354 3.666C91.7 78.042 92 78.096 92 76.758c0-.875.419-1.741.93-1.925.512-.183.353-1.116-.353-2.074-1.22-1.654-1.36-1.654-2.81 0M83 77c0 .55.45 1 1 1s1-.45 1-1-.45-1-1-1-1 .45-1 1m-51.306 32.338c1.614 2.053 1.83 4.24 1.766 17.957-.064 13.727-.297 15.867-1.921 17.662-1.844 2.038-1.832 2.043 4.806 2.043 3.77 0 6.655-.434 6.655-1 0-.55-.395-1-.879-1-1.953 0-3.195-5.991-2.914-14.062l.293-8.438 7.077 12 7.077 12 8.758.29 8.758.29-1.585-2.262C68.297 142.978 68 139.52 68 126.337c0-9.734.4-16.466 1-16.837 2.474-1.529.522-2.5-5.023-2.5-5.998 0-6.017.009-4.611 2.25.812 1.295 1.696 6.494 2.081 12.25l.67 10-7.269-12.25L47.579 107H29.855l1.839 2.338m56.338-1.588c.017.412.641 1.554 1.386 2.536 1.54 2.029 1.417 2.743-3.374 19.714-2.24 7.934-4.048 12.353-5.832 14.25L77.626 147h6.809c5.813 0 6.635-.211 5.615-1.44-.657-.791-1.049-2.661-.872-4.155.293-2.475.975-1.857 7.664 6.939 4.037 5.311 7.723 9.656 8.191 9.656 2.705 0 1.342-3.016-4.87-10.775l-6.985-8.725 3.516-.317c1.934-.174 4.144-.075 4.911.219 1.709.656 1.843 5.75.195 7.398-.933.933 1.141 1.2 9.333 1.2 10.644 0 12.571-.423 10.967-2.408-.485-.601-3.192-7.392-6.016-15.092l-6.691-18.25-1.558-4.25h-9.918c-5.454 0-9.903.338-9.885.75M177 109c0 .55.423 1 .941 1s1.219-.45 1.559-1c.34-.55-.084-1-.941-1s-1.559.45-1.559 1m-83.768 16.779L91.131 132h4.502c5.029 0 5.016.076 1.388-8.467l-1.688-3.975-2.101 6.221m89.064.228l-1.918 6.493 3.915.313c2.153.172 4.099.128 4.323-.096.225-.225-.674-3.287-1.996-6.806l-2.405-6.397-1.919 6.493m-52.604 12.924c.305 1.167 1.07 1.714 1.932 1.383 1.095-.42 1.16-.87.279-1.931-1.65-1.988-2.799-1.703-2.211.548M80 150c0 .55.45 1 1 1s1-.45 1-1-.45-1-1-1-1 .45-1 1m105 6.559c0 .857.45 1.281 1 .941.55-.34 1-1.041 1-1.559s-.45-.941-1-.941-1 .702-1 1.559m12.914 2.761c-1.448 1.077-1.448 1.317 0 2.759 1.445 1.438 1.741 1.416 3.336-.25 1.36-1.421 1.434-1.829.333-1.829-.779 0-1.566-.419-1.75-.93-.186-.52-1.032-.41-1.919.25m-89.903 1.167c-.989 1.192-.624 2.214 1.957 5.472 5.757 7.269 11.284 10.154 12.647 6.602.804-2.095-.503-3.859-6.115-8.254-6.852-5.366-7.11-5.482-8.489-3.82M187 161.5c0 .825.45 1.5 1 1.5s1-.675 1-1.5-.45-1.5-1-1.5-1 .675-1 1.5m-24 6.5c0 .55.45 1 1 1s1-.45 1-1-.45-1-1-1-1 .45-1 1m38.5 0c.34.55 1.041 1 1.559 1s.941-.45.941-1-.702-1-1.559-1-1.281.45-.941 1m-29.861.694c-1.126 1.126-.685 2.306.861 2.306.825 0 1.5-.423 1.5-.941 0-1.261-1.562-2.164-2.361-1.365M80 170c0 .55.423 1 .941 1s1.219-.45 1.559-1c.34-.55-.084-1-.941-1S80 169.45 80 170m116 0c0 .55.45 1 1 1s1-.45 1-1-.45-1-1-1-1 .45-1 1m-144 5c0 .55.675 1 1.5 1s1.5-.45 1.5-1-.675-1-1.5-1-1.5.45-1.5 1m-11 1c0 .55.45 1 1 1s1-.45 1-1-.45-1-1-1-1 .45-1 1m146 3c0 .55.45 1 1 1s1-.45 1-1-.45-1-1-1-1 .45-1 1m-118 1c0 .55.45 1 1 1s1-.45 1-1-.45-1-1-1-1 .45-1 1m94 0c0 .55.45 1 1 1s1-.45 1-1-.45-1-1-1-1 .45-1 1m-112 1c0 .55.45 1 1 1s1-.45 1-1-.45-1-1-1-1 .45-1 1m137.38 1.356c-.833.953-.769 1.76.25 3.153 1.338 1.83 1.402 1.83 2.748-.011 1.134-1.551 1.147-2.116.071-3.191-1.572-1.573-1.651-1.572-3.069.049M55 184.5c0 .917.484 1.505 1.075 1.308.591-.197 1.075-.786 1.075-1.308s-.484-1.111-1.075-1.308c-.591-.197-1.075.391-1.075 1.308m32 0c0 .825.45 1.5 1 1.5s1-.675 1-1.5-.45-1.5-1-1.5-1 .675-1 1.5m108-.5c0 .55.45 1 1 1s1-.45 1-1-.45-1-1-1-1 .45-1 1m-62.5 1c-.34.55.084 1 .941 1s1.559-.45 1.559-1-.423-1-.941-1-1.219.45-1.559 1m-55.947 6.915a1.116 1.116 0 00.362 1.532c.521.322 1.21.159 1.532-.362a1.116 1.116 0 00-.362-1.532 1.116 1.116 0 00-1.532.362M112 192.5c0 .825.45 1.5 1 1.5s1-.675 1-1.5-.45-1.5-1-1.5-1 .675-1 1.5M88 195c0 .55.423 1 .941 1s1.219-.45 1.559-1c.34-.55-.084-1-.941-1S88 194.45 88 195m-9.54 9.044c-1.605 1.774-1.616 1.956-.115 1.956.91 0 1.655.482 1.655 1.071 0 .59.707.365 1.571-.5 1.376-1.375 1.391-1.752.116-3.027-1.275-1.275-1.677-1.213-3.227.5M167 203c0 .55.45 1 1 1s1-.45 1-1-.45-1-1-1-1 .45-1 1" fill="#1976D2" fill-rule="evenodd"/></svg>